<svg version="1.0" xmlns="http://www.w3.org/2000/svg" viewBox="-1, -1, 2, 2">
    <path
        d="M0,-1A1,1,0,0,1,0.174,-0.985L0.220,-0.82A0.850,0.850,0,0,1,0.601,-0.60L0.766,-0.643A1,1,0,0,1,0.866,-0.5A1,1,0,0,1,0.940,-0.342L0.821,-0.22A0.850,0.850,0,0,1,0.821,0.212L0.940,0.34A1,1,0,0,1,0.866,0.5A1,1,0,0,1,0.766,0.64L0.601,0.595A0.850,0.850,0,0,1,0.220,0.816L0.174,0.98A1,1,0,0,1,0.000,1A1,1,0,0,1,-0.17,0.98L-0.21,0.816A0.850,0.850,0,0,1,-0.59,0.595L-0.76,0.64A1,1,0,0,1,-0.86,0.5A1,1,0,0,1,-0.94,0.34L-0.81,0.212A0.850,0.850,0,0,1,-0.81,-0.22L-0.94,-0.342A1,1,0,0,1,-0.86,-0.5A1,1,0,0,1,-0.76,-0.643L-0.59,-0.60A0.850,0.850,0,0,1,-0.21,-0.82L-0.17,-0.985A1,1,0,0,1,-0.00,-1L0,-0.7A0.7,0.7,0,1,0,0,0.7A0.7,0.7,0,1,0,0,-0.7Z"
        fill="#111">
    </path>
    <circle cx="0" cy="0" r="0.55" stroke="#111" fill="none" style="
    stroke-width: 0.15;
"></circle>
    <circle cx="0" cy="0" r="0.2" fill="#111"></circle>
    <circle cx="0.25" cy="-0.25" r="0.05" fill="#f00"></circle>
</svg>